<?xml version="1.0" encoding="UTF-8" standalone="no"?>
<!DOCTYPE svg PUBLIC "-//W3C//DTD SVG 1.1//EN"
 "http://www.w3.org/Graphics/SVG/1.1/DTD/svg11.dtd">
<!-- Generated by graphviz version 2.38.0 (20140413.2041)
 -->
<!-- Title: G Pages: 1 -->
<svg width="615pt" height="231pt"
 viewBox="0.00 0.00 614.94 230.93" xmlns="http://www.w3.org/2000/svg" xmlns:xlink="http://www.w3.org/1999/xlink">
<g id="graph0" class="graph" transform="scale(1 1) rotate(0) translate(4 226.93)">
<title>G</title>
<polygon fill="white" stroke="none" points="-4,4 -4,-226.93 610.937,-226.93 610.937,4 -4,4"/>
<text text-anchor="middle" x="530.497" y="-7.92993" font-family="Helvetica Neue" font-size="10.00">kudos to sferik for the diagram</text>
<g id="clust1" class="cluster"><title>clusterClient</title>
<polygon fill="#d0c0a0" stroke="none" points="8,-81.9299 8,-160.93 117.241,-160.93 117.241,-81.9299 8,-81.9299"/>
<text text-anchor="middle" x="88.6492" y="-92.2178" font-family="Helvetica Neue" font-size="16.00">Client</text>
</g>
<g id="clust2" class="cluster"><title>clusterServer</title>
<polygon fill="#d0c0a0" stroke="none" points="136.241,-27.9299 136.241,-214.93 598.937,-214.93 598.937,-27.9299 136.241,-27.9299"/>
<text text-anchor="middle" x="567.833" y="-38.2178" font-family="Helvetica Neue" font-size="16.00">Server</text>
</g>
<g id="clust3" class="cluster"><title>clusterApp</title>
<polygon fill="#b02b2c" stroke="none" points="144.241,-73.9299 144.241,-168.93 341.204,-168.93 341.204,-73.9299 144.241,-73.9299"/>
<text text-anchor="middle" x="283.42" y="-84.2178" font-family="Helvetica Neue" font-size="16.00">Ruby Process</text>
</g>
<g id="clust4" class="cluster"><title>clusterCaddy</title>
<polygon fill="#b02b2c" stroke="none" points="238.532,-108.93 238.532,-160.93 333.204,-160.93 333.204,-108.93 238.532,-108.93"/>
</g>
<!-- Browser -->
<g id="node1" class="node"><title>Browser</title>
<ellipse fill="lightgrey" stroke="black" cx="62.6206" cy="-134.93" rx="46.7415" ry="18"/>
<text text-anchor="middle" x="62.6206" y="-132.081" font-family="Helvetica Neue" font-size="14.00">Browser</text>
</g>
<!-- App -->
<g id="node2" class="node"><title>App</title>
<ellipse fill="lightgrey" stroke="black" cx="180.887" cy="-134.93" rx="28.7915" ry="18"/>
<text text-anchor="middle" x="180.887" y="-132.081" font-family="Helvetica Neue" font-size="14.00">App</text>
</g>
<!-- Browser&#45;&gt;App -->
<g id="edge1" class="edge"><title>Browser&#45;&gt;App</title>
<path fill="none" stroke="black" d="M119.781,-134.93C127.305,-134.93 134.874,-134.93 141.981,-134.93"/>
<polygon fill="black" stroke="black" points="119.572,-131.43 109.572,-134.93 119.572,-138.43 119.572,-131.43"/>
<polygon fill="black" stroke="black" points="142.006,-138.43 152.006,-134.93 142.006,-131.43 142.006,-138.43"/>
</g>
<!-- Caddy -->
<g id="node3" class="node"><title>Caddy</title>
<ellipse fill="lightgrey" stroke="black" cx="285.868" cy="-134.93" rx="39.1731" ry="18"/>
<text text-anchor="middle" x="285.868" y="-132.081" font-family="Helvetica Neue" font-size="14.00">Caddy</text>
</g>
<!-- App&#45;&gt;Caddy -->
<g id="edge2" class="edge"><title>App&#45;&gt;Caddy</title>
<path fill="none" stroke="black" d="M219.873,-134.93C225.096,-134.93 230.519,-134.93 235.904,-134.93"/>
<polygon fill="black" stroke="black" points="219.755,-131.43 209.755,-134.93 219.755,-138.43 219.755,-131.43"/>
<polygon fill="black" stroke="black" points="236.153,-138.43 246.153,-134.93 236.153,-131.43 236.153,-138.43"/>
</g>
<!-- Etc. -->
<g id="node4" class="node"><title>Etc.</title>
<ellipse fill="lightgrey" stroke="black" cx="524.186" cy="-80.9299" rx="27.5032" ry="18"/>
<text text-anchor="middle" x="524.186" y="-78.0809" font-family="Helvetica Neue" font-size="14.00">Etc.</text>
</g>
<!-- Caddy&#45;&gt;Etc. -->
<g id="edge5" class="edge"><title>Caddy&#45;&gt;Etc.</title>
<path fill="none" stroke="black" stroke-dasharray="1,5" d="M331.509,-124.729C376.766,-114.388 445.897,-98.5908 487.596,-89.0624"/>
<polygon fill="black" stroke="black" points="330.453,-121.38 321.484,-127.02 332.012,-128.204 330.453,-121.38"/>
<polygon fill="black" stroke="black" points="488.606,-92.4219 497.575,-86.7821 487.047,-85.5978 488.606,-92.4219"/>
</g>
<!-- Database -->
<g id="node5" class="node"><title>Database</title>
<ellipse fill="lightgrey" stroke="black" cx="524.186" cy="-134.93" rx="51.9801" ry="18"/>
<text text-anchor="middle" x="524.186" y="-132.081" font-family="Helvetica Neue" font-size="14.00">Database</text>
</g>
<!-- Caddy&#45;&gt;Database -->
<g id="edge3" class="edge"><title>Caddy&#45;&gt;Database</title>
<path fill="none" stroke="black" stroke-dasharray="1,5" d="M335.614,-134.93C372.208,-134.93 422.562,-134.93 461.885,-134.93"/>
<polygon fill="black" stroke="black" points="335.363,-131.43 325.363,-134.93 335.363,-138.43 335.363,-131.43"/>
<polygon fill="black" stroke="black" points="461.887,-138.43 471.887,-134.93 461.887,-131.43 461.887,-138.43"/>
<text text-anchor="middle" x="394.319" y="-140.432" font-family="Helvetica Neue" font-size="14.00">Async Refresh</text>
</g>
<!-- Slow Service -->
<g id="node6" class="node"><title>Slow Service</title>
<ellipse fill="lightgrey" stroke="black" cx="524.186" cy="-188.93" rx="66.5035" ry="18"/>
<text text-anchor="middle" x="524.186" y="-186.081" font-family="Helvetica Neue" font-size="14.00">Slow Service</text>
</g>
<!-- Caddy&#45;&gt;Slow Service -->
<g id="edge4" class="edge"><title>Caddy&#45;&gt;Slow Service</title>
<path fill="none" stroke="black" stroke-dasharray="1,5" d="M326.611,-149.224C334.064,-151.646 341.83,-153.998 349.204,-155.93 383.957,-165.033 423.233,-172.702 455.662,-178.349"/>
<polygon fill="black" stroke="black" points="327.647,-145.88 317.053,-146.03 325.428,-152.519 327.647,-145.88"/>
<polygon fill="black" stroke="black" points="455.489,-181.87 465.936,-180.11 456.672,-174.97 455.489,-181.87"/>
</g>
</g>
</svg>
