<?xml version="1.0" encoding="UTF-8" standalone="no"?>
<!DOCTYPE svg PUBLIC "-//W3C//DTD SVG 1.1//EN"
 "http://www.w3.org/Graphics/SVG/1.1/DTD/svg11.dtd">
<!-- Generated by graphviz version 2.38.0 (20140413.2041)
 -->
<!-- Title: G Pages: 1 -->
<svg width="615pt" height="243pt"
 viewBox="0.00 0.00 614.94 242.86" xmlns="http://www.w3.org/2000/svg" xmlns:xlink="http://www.w3.org/1999/xlink">
<g id="graph0" class="graph" transform="scale(1 1) rotate(0) translate(4 238.86)">
<title>G</title>
<polygon fill="white" stroke="none" points="-4,4 -4,-238.86 610.937,-238.86 610.937,4 -4,4"/>
<text text-anchor="middle" x="303.468" y="-214.86" font-family="Helvetica Neue" font-size="20.00">Caddy Architecture</text>
<g id="clust1" class="cluster"><title>clusterClient</title>
<polygon fill="#d0c0a0" stroke="none" points="8,-62 8,-141 117.241,-141 117.241,-62 8,-62"/>
<text text-anchor="middle" x="62.6206" y="-124.2" font-family="Helvetica Neue" font-size="16.00">Client</text>
</g>
<g id="clust2" class="cluster"><title>clusterServer</title>
<polygon fill="#d0c0a0" stroke="none" points="136.241,-8 136.241,-195 598.937,-195 598.937,-8 136.241,-8"/>
<text text-anchor="middle" x="367.589" y="-178.2" font-family="Helvetica Neue" font-size="16.00">Server</text>
</g>
<g id="clust3" class="cluster"><title>clusterApp</title>
<polygon fill="#b02b2c" stroke="none" points="144.241,-54 144.241,-149 341.204,-149 341.204,-54 144.241,-54"/>
<text text-anchor="middle" x="242.723" y="-132.2" font-family="Helvetica Neue" font-size="16.00">Ruby Process</text>
</g>
<g id="clust4" class="cluster"><title>clusterCaddy</title>
<polygon fill="#b02b2c" stroke="none" points="238.532,-62 238.532,-114 333.204,-114 333.204,-62 238.532,-62"/>
</g>
<!-- Browser -->
<g id="node1" class="node"><title>Browser</title>
<ellipse fill="lightgrey" stroke="black" cx="62.6206" cy="-88" rx="46.7415" ry="18"/>
<text text-anchor="middle" x="62.6206" y="-85.151" font-family="Helvetica Neue" font-size="14.00">Browser</text>
</g>
<!-- App -->
<g id="node2" class="node"><title>App</title>
<ellipse fill="lightgrey" stroke="black" cx="180.887" cy="-88" rx="28.7915" ry="18"/>
<text text-anchor="middle" x="180.887" y="-85.151" font-family="Helvetica Neue" font-size="14.00">App</text>
</g>
<!-- Browser&#45;&gt;App -->
<g id="edge1" class="edge"><title>Browser&#45;&gt;App</title>
<path fill="none" stroke="black" d="M119.781,-88C127.305,-88 134.874,-88 141.981,-88"/>
<polygon fill="black" stroke="black" points="119.572,-84.5001 109.572,-88 119.572,-91.5001 119.572,-84.5001"/>
<polygon fill="black" stroke="black" points="142.006,-91.5001 152.006,-88 142.006,-84.5001 142.006,-91.5001"/>
</g>
<!-- Caddy -->
<g id="node3" class="node"><title>Caddy</title>
<ellipse fill="lightgrey" stroke="black" cx="285.868" cy="-88" rx="39.1731" ry="18"/>
<text text-anchor="middle" x="285.868" y="-85.151" font-family="Helvetica Neue" font-size="14.00">Caddy</text>
</g>
<!-- App&#45;&gt;Caddy -->
<g id="edge2" class="edge"><title>App&#45;&gt;Caddy</title>
<path fill="none" stroke="black" d="M219.873,-88C225.096,-88 230.519,-88 235.904,-88"/>
<polygon fill="black" stroke="black" points="219.755,-84.5001 209.755,-88 219.755,-91.5001 219.755,-84.5001"/>
<polygon fill="black" stroke="black" points="236.153,-91.5001 246.153,-88 236.153,-84.5001 236.153,-91.5001"/>
</g>
<!-- Etc. -->
<g id="node4" class="node"><title>Etc.</title>
<ellipse fill="lightgrey" stroke="black" cx="524.186" cy="-34" rx="27.5032" ry="18"/>
<text text-anchor="middle" x="524.186" y="-31.151" font-family="Helvetica Neue" font-size="14.00">Etc.</text>
</g>
<!-- Caddy&#45;&gt;Etc. -->
<g id="edge5" class="edge"><title>Caddy&#45;&gt;Etc.</title>
<path fill="none" stroke="black" stroke-dasharray="1,5" d="M331.509,-77.7992C376.766,-67.4579 445.897,-51.6609 487.596,-42.1324"/>
<polygon fill="black" stroke="black" points="330.453,-74.4503 321.484,-80.0901 332.012,-81.2744 330.453,-74.4503"/>
<polygon fill="black" stroke="black" points="488.606,-45.4919 497.575,-39.8522 487.047,-38.6678 488.606,-45.4919"/>
</g>
<!-- Database -->
<g id="node5" class="node"><title>Database</title>
<ellipse fill="lightgrey" stroke="black" cx="524.186" cy="-88" rx="51.9801" ry="18"/>
<text text-anchor="middle" x="524.186" y="-85.151" font-family="Helvetica Neue" font-size="14.00">Database</text>
</g>
<!-- Caddy&#45;&gt;Database -->
<g id="edge3" class="edge"><title>Caddy&#45;&gt;Database</title>
<path fill="none" stroke="black" stroke-dasharray="1,5" d="M335.614,-88C372.208,-88 422.562,-88 461.885,-88"/>
<polygon fill="black" stroke="black" points="335.363,-84.5001 325.363,-88 335.363,-91.5001 335.363,-84.5001"/>
<polygon fill="black" stroke="black" points="461.887,-91.5001 471.887,-88 461.887,-84.5001 461.887,-91.5001"/>
<text text-anchor="middle" x="394.319" y="-93.5019" font-family="Helvetica Neue" font-size="14.00">Async Refresh</text>
</g>
<!-- Slow Service -->
<g id="node6" class="node"><title>Slow Service</title>
<ellipse fill="lightgrey" stroke="black" cx="524.186" cy="-142" rx="66.5035" ry="18"/>
<text text-anchor="middle" x="524.186" y="-139.151" font-family="Helvetica Neue" font-size="14.00">Slow Service</text>
</g>
<!-- Caddy&#45;&gt;Slow Service -->
<g id="edge4" class="edge"><title>Caddy&#45;&gt;Slow Service</title>
<path fill="none" stroke="black" stroke-dasharray="1,5" d="M326.611,-102.294C334.064,-104.716 341.83,-107.068 349.204,-109 383.957,-118.103 423.233,-125.772 455.662,-131.419"/>
<polygon fill="black" stroke="black" points="327.647,-98.9504 317.053,-99.0999 325.428,-105.589 327.647,-98.9504"/>
<polygon fill="black" stroke="black" points="455.489,-134.94 465.936,-133.18 456.672,-128.041 455.489,-134.94"/>
</g>
</g>
</svg>
